<svg width="159" height="77" viewBox="0 0 159 77" fill="none" xmlns="http://www.w3.org/2000/svg">
<mask id="mask0" mask-type="alpha" maskUnits="userSpaceOnUse" x="0" y="-17" width="171" height="107">
<path fill-rule="evenodd" clip-rule="evenodd" d="M12.6934 -16.72L170.994 5.52767L159.203 89.4228L0.90271 67.1752L12.6934 -16.72Z" fill="white"/>
</mask>
<g mask="url(#mask0)">
<path fill-rule="evenodd" clip-rule="evenodd" d="M34.7349 64.9737C34.7461 63.7894 34.2315 62.7917 35.0143 61.9688C37.5048 60.0256 39.4694 63.3535 41.9476 61.5715L42.1599 59.607C44.0721 59.9064 46.0402 60.5106 48.0332 60.988C51.7827 59.9766 55.513 58.9702 59.2324 57.9679C59.1878 57.2682 59.1893 56.6209 59.5761 56.3342C61.1524 55.6879 63.2263 56.2265 65.3857 56.3978C65.7187 56.2818 66.0519 56.1638 66.3792 56.0508C66.6682 55.6259 66.7996 54.947 66.8812 54.5274C67.8656 54.5815 68.7201 54.807 69.51 55.0233C80.5781 51.5902 92.0366 49.2847 104.066 51.2819C106.823 50.8781 109.592 50.75 111.997 51.6341C115.443 53.3675 118.954 58.2078 121.628 61.6181C122.604 58.397 125.156 57.9664 127.597 57.7921C130.058 57.5116 132.413 57.4977 133.077 53.6139C134.033 55.0087 135.138 56.9304 136.155 58.2746C137.151 59.6597 138.016 60.5745 138.499 59.9335C139.926 58.0497 141.717 56.378 143.934 56.1724C146.157 55.9426 148.892 57.0913 151.926 61.2209C153.021 62.9764 153.835 66.0602 154.565 68.6687C155.232 71.3697 155.78 73.6652 156.334 74.0994C156.732 74.3469 156.959 74.0052 157.099 73.3678C157.238 72.7283 157.225 71.6384 157.232 70.5934C157.238 68.4868 157.222 66.3331 158.109 67.0287C152.773 49.0618 144.549 35.1584 135.345 25.2707C126.079 15.3955 115.88 9.20137 105.398 4.9273C103.453 4.91446 98.967 3.88557 93.1085 3.0354C87.2485 2.1965 80.0064 1.67487 72.5935 1.93003C65.1794 2.20036 57.5993 3.16959 51.0705 4.47815C44.5437 5.73528 39.0621 7.25807 35.8674 7.98727L34.7079 8.45461C27.7449 10.4091 19.1753 14.7834 13.343 20.7915C10.7064 23.9058 8.07951 27.5138 5.48737 31.299C6.93134 31.4042 8.24234 31.6364 9.36595 32.0242C6.59202 33.6651 3.72534 35.6952 2.80376 37.7248C1.39135 39.6259 0.582922 41.1503 0.223411 42.3259C-0.131227 43.4887 -0.0337776 44.2802 0.321869 44.8877C1.04291 46.0772 2.75652 46.6265 4.14622 47.8639C5.92925 48.5264 4.41332 52.8978 6.9413 53.029C5.32871 54.1893 4.51504 54.7781 2.95281 56.1141C3.03634 57.0339 4.16367 55.7421 5.25257 54.7457C6.34918 53.7676 7.35858 53.0589 7.01412 54.932C5.38773 55.4371 3.88572 57.91 2.45548 59.2359C2.95576 60.1089 4.21726 59.1425 5.47358 58.3593C6.72013 57.5651 7.9037 56.9191 7.95245 58.1961C7.57451 58.7714 6.39207 58.7949 5.32873 59.134C4.25339 59.456 3.33834 60.1225 3.50518 61.6345C3.57126 62.2396 4.96264 61.0366 5.71531 60.4795C3.52119 62.8226 2.28769 65.316 2.28328 66.825C2.24511 67.6012 2.41788 68.2079 2.77019 68.6636C2.94913 68.8899 3.15373 69.0872 3.42275 69.2285C3.74588 69.3505 4.05157 69.4356 4.52682 69.4335C4.00577 69.9005 3.38219 70.2267 3.04293 70.3437C2.97011 70.3718 2.91253 70.3426 2.81597 70.4153C2.70579 70.5262 2.5961 70.6411 2.49039 70.7642C2.29194 71.0352 2.13672 71.3716 2.05751 71.7743L2.07981 71.7985C2.32391 71.1661 3.21664 70.6804 3.2506 70.6948C3.14895 70.7744 2.62961 71.4121 2.36652 72.0552C2.55868 72.224 2.76189 72.402 2.97162 72.5847C3.29726 72.4255 3.72902 72.1988 3.74062 72.2407C3.69069 72.318 3.70298 72.2086 3.58071 72.3983C3.4781 72.5506 3.36402 72.682 3.27134 72.8587C3.51065 73.0724 3.75485 73.3098 3.98945 73.5497C4.10344 73.6749 4.22261 73.7778 4.32165 73.9144C4.40045 74.0998 4.47118 74.284 4.5356 74.4694C4.82579 75.2573 5.57448 75.738 6.30179 76.1295C6.63605 76.3259 6.99234 76.4679 7.30905 76.5259C7.60784 76.587 7.87033 76.5626 8.09358 76.4005C9.82786 75.3032 11.9117 74.14 14.064 73.0747C16.2254 72.0029 18.4803 70.9979 20.7648 70.0527C25.3373 68.1512 30.037 66.5012 34.7349 64.9737Z" fill="#FF1273"/>
</g>
<path fill-rule="evenodd" clip-rule="evenodd" d="M74.0734 34.8552C74.0374 34.3732 74.0604 30.6552 74.0594 30.3002C74.7354 30.1882 75.4694 29.9522 75.8654 30.2832C76.2954 30.6412 76.2044 31.5192 76.2064 32.1492C76.2094 33.1442 76.3904 34.4022 75.1564 34.6652C74.7914 34.7432 74.4024 34.8012 74.0734 34.8552ZM87.7614 40.0842C89.1254 38.1992 89.9144 37.1132 90.6584 34.9122C91.4874 32.4592 92.1834 28.6972 90.9444 25.2742C88.9194 19.6812 82.3794 18.3142 76.5794 19.2752C74.5284 19.6152 58.7674 22.2212 57.8454 22.3742C57.8774 32.6592 57.9114 43.0062 57.9424 53.2922C61.4724 52.7082 71.7924 51.0002 74.1084 50.6192L74.0894 44.7762L76.2424 44.4192C76.2424 44.4192 78.0374 49.9662 78.0374 49.9682C80.5564 49.5492 92.0314 47.6522 92.9944 47.4952C91.2574 45.0132 89.5054 42.5572 87.7614 40.0842Z" fill="white"/>
<path fill-rule="evenodd" clip-rule="evenodd" d="M126.145 28.4851C126.413 26.3371 126.158 22.9041 125.5 20.9761C124.883 19.1701 124.089 17.6951 123.114 16.5131C117.849 25.2661 110.069 38.1831 109.622 38.8081C108.749 37.9971 102.773 30.8531 99.8427 27.3021L108.713 29.7381L121.85 15.2311C119.272 13.0481 115.726 12.3451 111.162 12.6791C109.802 12.7801 109.048 12.9041 107.689 13.2551C100.344 15.1451 95.6537 18.8521 93.4167 26.2821C92.7717 28.4251 92.5397 31.9391 92.8207 33.9971C93.4217 38.3941 94.7097 41.8441 98.5157 43.9971C104.381 47.3131 114.68 45.6091 120.518 40.3571C124.306 36.9501 125.572 33.0781 126.145 28.4851Z" fill="white"/>
<path fill-rule="evenodd" clip-rule="evenodd" d="M39.3805 41.1893C39.3795 40.7493 39.3655 36.4073 39.3635 35.7963C40.3025 35.4863 41.4705 35.4553 41.4735 36.2493C41.4745 36.8713 41.4755 36.9463 41.4795 38.1983C41.4815 38.9493 41.4825 39.3543 41.4845 40.0123C41.4875 41.0293 40.0245 41.0833 39.3805 41.1893ZM39.2975 56.1713C39.2955 55.2983 39.2805 54.4183 39.2895 53.5443C39.2905 53.5173 39.2855 52.1653 39.2855 52.1653L42.9025 51.5663C47.5885 50.7383 52.7235 48.7123 54.9525 43.7603C56.6915 39.8973 57.1065 34.0733 55.7485 30.6473C54.8035 28.2623 53.5485 26.9963 51.1585 25.7963C47.5975 24.0093 42.4255 24.6523 38.3925 25.3193C33.3645 26.1513 28.1415 26.9943 23.1585 27.8853C23.1735 32.9063 23.1935 52.5523 23.2555 58.8453L39.2975 56.1713Z" fill="white"/>
<mask id="mask1" mask-type="alpha" maskUnits="userSpaceOnUse" x="72" y="7" width="11" height="11">
<path fill-rule="evenodd" clip-rule="evenodd" d="M72.0132 7.00024H82.6092V17.196H72.0132V7.00024Z" fill="white"/>
</mask>
<g mask="url(#mask1)">
<path fill-rule="evenodd" clip-rule="evenodd" d="M75.7882 17.196L75.7772 13.651L72.0132 8.753L75.4322 8.187L77.3202 10.776L77.3712 10.768L79.2922 7.549L82.6092 7L78.8922 13.135L78.9042 16.681L75.7882 17.196Z" fill="white"/>
</g>
<path fill-rule="evenodd" clip-rule="evenodd" d="M65.7086 18.8631C65.1036 18.9641 64.5816 18.9651 64.1436 18.8671C63.7066 18.7691 63.3436 18.5621 63.0566 18.2481C62.3346 17.4551 62.4126 16.3181 62.4086 14.8821C62.4036 13.4671 62.3326 12.3031 63.0346 11.2921C63.3196 10.8831 63.6806 10.5561 64.1176 10.3141C64.5536 10.0711 65.0746 9.90006 65.6806 9.80006L71.4836 8.84106L71.4916 11.5121L66.9886 12.2571C66.6606 12.3111 66.3916 12.3941 66.1816 12.5051C65.9716 12.6151 65.8076 12.7591 65.6896 12.9351C65.5726 13.1111 65.4456 13.3221 65.4466 13.5601C65.4476 14.0581 65.4496 14.7131 65.4516 15.1981C65.4516 15.4361 65.5806 15.6041 65.6986 15.7421C65.8176 15.8791 65.9816 15.9671 66.1916 16.0091C66.4026 16.0501 66.6716 16.0441 66.9996 15.9901L68.6266 15.7201L68.6246 14.7811L66.6436 15.1081L66.6376 13.0941L71.5316 12.2851L71.5496 17.8971L65.7086 18.8631Z" fill="white"/>
<path fill-rule="evenodd" clip-rule="evenodd" d="M58.4806 20.0583L56.5666 17.6203L55.2176 17.8443L55.2256 20.5973L52.1606 21.1043L52.1316 12.0403L58.6166 10.9683C59.2126 10.8703 59.7096 10.8503 60.1056 10.9103C60.5016 10.9703 60.8146 11.1113 61.0466 11.3313C61.2786 11.5533 61.4416 11.8553 61.5356 12.2383C61.6296 12.6213 61.6776 13.0853 61.6786 13.6323C61.6816 14.4643 61.5366 15.1313 61.2436 15.6323C60.9506 16.1323 60.4806 16.5393 59.8336 16.8523L62.1516 19.4523L58.4806 20.0583ZM55.2056 13.8833L55.2096 15.3333L57.8076 14.9043C58.0856 14.8583 58.2826 14.7783 58.4006 14.6643C58.5186 14.5513 58.5766 14.3423 58.5756 14.0373C58.5746 13.7513 58.5146 13.5713 58.3966 13.4963C58.2786 13.4223 58.0816 13.4083 57.8036 13.4543L55.2056 13.8833Z" fill="white"/>
<path fill-rule="evenodd" clip-rule="evenodd" d="M38.65 23.3387L38.632 17.7397C38.631 17.4527 38.58 17.2627 38.479 17.1667C38.378 17.0717 38.192 17.0467 37.923 17.0917L35.4 17.5087L35.421 23.8727L32.317 24.3867L32.289 15.3227L38.76 14.2527C39.795 14.0817 40.544 14.1927 41.008 14.5857C41.472 14.9797 41.705 15.6147 41.708 16.4917L41.728 22.8297L38.65 23.3387Z" fill="white"/>
<path fill-rule="evenodd" clip-rule="evenodd" d="M26.1486 25.4061C24.9466 25.6051 24.0526 25.8671 23.4656 25.2571C22.8796 24.6451 23.0286 22.9981 23.0236 21.3961C23.0186 19.7941 22.8596 18.1951 23.4406 17.3861C24.0236 16.5781 24.9176 16.5421 26.1206 16.3431L31.3556 15.4771L31.3636 18.0021L27.0236 18.7191C25.8356 18.9161 25.7896 18.9631 25.7916 19.7431L31.3156 18.8291L31.3226 21.1111L25.7736 22.0291C25.7756 22.9011 25.6926 22.9561 27.0366 22.7341L31.3756 22.0161L31.3836 24.5411L26.1486 25.4061Z" fill="white"/>
<path fill-rule="evenodd" clip-rule="evenodd" d="M45.8414 22.1492C44.6384 22.3482 43.7454 22.6092 43.1584 22.0002C42.5714 21.3882 42.7214 19.7412 42.7164 18.1382C42.7114 16.5372 42.5514 14.9372 43.1334 14.1292C43.7164 13.3212 44.6104 13.2852 45.8124 13.0862L51.0484 12.2202L51.0554 14.7442L46.7164 15.4622C45.5284 15.6592 45.4814 15.7062 45.4844 16.4852L51.0084 15.5722L51.0154 17.8542L45.4664 18.7722C45.4684 19.6442 45.3854 19.6992 46.7294 19.4762L51.0684 18.7582L51.0764 21.2832L45.8414 22.1492Z" fill="white"/>
<path fill-rule="evenodd" clip-rule="evenodd" d="M127.899 7.89624L108.713 29.0832L99.8426 26.6462C102.774 30.1992 108.75 37.3422 109.622 38.1532C110.3 37.2032 127.899 7.89624 127.899 7.89624Z" fill="#E31E24"/>
</svg>
