<svg width="74" height="74" viewBox="0 0 74 74" fill="none" xmlns="http://www.w3.org/2000/svg">
<path d="M17.9682 38V26.9H16.0482V24.66H20.5682V38H17.9682ZM32.6891 36.46C31.6891 37.6867 30.4758 38.3 29.0491 38.3C27.6225 38.3 26.4025 37.6867 25.3891 36.46C24.3891 35.22 23.8891 33.5067 23.8891 31.32C23.8891 29.1467 24.3891 27.4467 25.3891 26.22C26.4025 24.98 27.6225 24.36 29.0491 24.36C30.4758 24.36 31.6891 24.98 32.6891 26.22C33.7025 27.4467 34.2091 29.1533 34.2091 31.34C34.2091 33.5133 33.7025 35.22 32.6891 36.46ZM30.8091 27.78C30.2891 26.9933 29.7025 26.6 29.0491 26.6C28.3958 26.6 27.8025 26.9933 27.2691 27.78C26.7491 28.5533 26.4891 29.7333 26.4891 31.32C26.4891 32.9067 26.7491 34.0933 27.2691 34.88C27.7891 35.6667 28.3825 36.06 29.0491 36.06C29.7158 36.06 30.3091 35.6667 30.8291 34.88C31.3491 34.0933 31.6091 32.9067 31.6091 31.32C31.6091 29.7333 31.3425 28.5533 30.8091 27.78ZM44.0563 36.46C43.0563 37.6867 41.843 38.3 40.4163 38.3C38.9897 38.3 37.7697 37.6867 36.7563 36.46C35.7563 35.22 35.2563 33.5067 35.2563 31.32C35.2563 29.1467 35.7563 27.4467 36.7563 26.22C37.7697 24.98 38.9897 24.36 40.4163 24.36C41.843 24.36 43.0563 24.98 44.0563 26.22C45.0697 27.4467 45.5763 29.1533 45.5763 31.34C45.5763 33.5133 45.0697 35.22 44.0563 36.46ZM42.1763 27.78C41.6563 26.9933 41.0697 26.6 40.4163 26.6C39.763 26.6 39.1697 26.9933 38.6363 27.78C38.1163 28.5533 37.8563 29.7333 37.8563 31.32C37.8563 32.9067 38.1163 34.0933 38.6363 34.88C39.1563 35.6667 39.7497 36.06 40.4163 36.06C41.083 36.06 41.6763 35.6667 42.1963 34.88C42.7163 34.0933 42.9763 32.9067 42.9763 31.32C42.9763 29.7333 42.7097 28.5533 42.1763 27.78ZM47.6035 25.4C48.2168 24.8 49.0368 24.5 50.0635 24.5C51.0902 24.5 51.9035 24.8 52.5035 25.4C53.1168 25.9867 53.4235 26.74 53.4235 27.66C53.4235 28.58 53.1168 29.34 52.5035 29.94C51.9035 30.5267 51.0902 30.82 50.0635 30.82C49.0368 30.82 48.2168 30.5267 47.6035 29.94C47.0035 29.34 46.7035 28.58 46.7035 27.66C46.7035 26.74 47.0035 25.9867 47.6035 25.4ZM48.8435 28.9C49.1635 29.22 49.5702 29.38 50.0635 29.38C50.5568 29.38 50.9568 29.22 51.2635 28.9C51.5835 28.58 51.7435 28.1667 51.7435 27.66C51.7435 27.1533 51.5835 26.74 51.2635 26.42C50.9568 26.1 50.5568 25.94 50.0635 25.94C49.5702 25.94 49.1635 26.1 48.8435 26.42C48.5368 26.74 48.3835 27.1533 48.3835 27.66C48.3835 28.1667 48.5368 28.58 48.8435 28.9ZM49.3435 37.94L57.2835 24.22L58.3435 24.82L50.4035 38.56L49.3435 37.94ZM55.1635 32.78C55.7768 32.18 56.5968 31.88 57.6235 31.88C58.6502 31.88 59.4635 32.18 60.0635 32.78C60.6768 33.3667 60.9835 34.12 60.9835 35.04C60.9835 35.96 60.6768 36.72 60.0635 37.32C59.4635 37.9067 58.6502 38.2 57.6235 38.2C56.5968 38.2 55.7768 37.9067 55.1635 37.32C54.5635 36.72 54.2635 35.96 54.2635 35.04C54.2635 34.12 54.5635 33.3667 55.1635 32.78ZM56.4035 36.28C56.7235 36.6 57.1302 36.76 57.6235 36.76C58.1168 36.76 58.5168 36.6 58.8235 36.28C59.1435 35.96 59.3035 35.5467 59.3035 35.04C59.3035 34.5333 59.1435 34.12 58.8235 33.8C58.5168 33.48 58.1168 33.32 57.6235 33.32C57.1302 33.32 56.7235 33.48 56.4035 33.8C56.0968 34.12 55.9435 34.5333 55.9435 35.04C55.9435 35.5467 56.0968 35.96 56.4035 36.28ZM13.0865 39.662H14.9065V49H13.0865V39.662ZM22.5816 40.544L21.6296 41.79C21.2283 41.258 20.7196 40.992 20.1036 40.992C19.6556 40.992 19.329 41.104 19.1236 41.328C18.9183 41.5427 18.8156 41.7947 18.8156 42.084C18.8156 42.336 18.9136 42.546 19.1096 42.714C19.259 42.854 19.6323 43.0313 20.2296 43.246C21.1536 43.5633 21.7836 43.876 22.1196 44.184C22.6516 44.66 22.9176 45.3133 22.9176 46.144C22.9176 47.0587 22.6143 47.8007 22.0076 48.37C21.4103 48.93 20.631 49.21 19.6696 49.21C18.3256 49.21 17.2523 48.622 16.4496 47.446L17.6396 46.312C17.845 46.732 18.1296 47.0447 18.4936 47.25C18.8576 47.4553 19.2263 47.558 19.5996 47.558C20.0196 47.558 20.365 47.4413 20.6356 47.208C20.9063 46.9653 21.0416 46.6527 21.0416 46.27C21.0416 45.9433 20.9203 45.6633 20.6776 45.43C20.4536 45.2247 19.973 44.996 19.2356 44.744C18.545 44.5107 18.027 44.24 17.6816 43.932C17.187 43.5027 16.9396 42.924 16.9396 42.196C16.9396 41.44 17.1963 40.796 17.7096 40.264C18.223 39.7227 18.965 39.452 19.9356 39.452C20.9903 39.452 21.8723 39.816 22.5816 40.544ZM25.4541 40.824C26.3875 39.9093 27.5868 39.452 29.0521 39.452C30.5175 39.452 31.7121 39.9093 32.6361 40.824C33.5695 41.7387 34.0361 42.91 34.0361 44.338C34.0361 45.766 33.5695 46.9373 32.6361 47.852C31.7121 48.7573 30.5175 49.21 29.0521 49.21C27.5868 49.21 26.3875 48.7573 25.4541 47.852C24.5301 46.9373 24.0681 45.766 24.0681 44.338C24.0681 42.91 24.5301 41.7387 25.4541 40.824ZM26.8121 46.662C27.3908 47.2593 28.1375 47.558 29.0521 47.558C29.9668 47.558 30.7135 47.2593 31.2921 46.662C31.8708 46.0553 32.1601 45.2807 32.1601 44.338C32.1601 43.3953 31.8661 42.6207 31.2781 42.014C30.6995 41.4073 29.9575 41.104 29.0521 41.104C28.1468 41.104 27.4001 41.4073 26.8121 42.014C26.2335 42.6207 25.9441 43.3953 25.9441 44.338C25.9441 45.2807 26.2335 46.0553 26.8121 46.662ZM35.7134 39.662H37.5334V47.432H40.4174V49H35.7134V39.662ZM48.3311 49L47.5051 47.04H43.7391L42.9131 49H40.9391L44.9571 39.662H46.3851L50.2911 49H48.3311ZM44.3131 45.556H46.9731L45.6431 42.196L44.3131 45.556ZM55.9429 41.23H53.8429V49H52.0229V41.23H49.9229V39.662H55.9429V41.23ZM62.2762 39.662V41.23H58.9162V43.316H62.1362V44.884H58.9162V47.432H62.2762V49H57.0962V39.662H62.2762Z" fill="#D3D3D3"/>
<path d="M37 73C56.8823 73 73 56.8823 73 37C73 17.1177 56.8823 1 37 1C17.1177 1 1 17.1177 1 37C1 56.8823 17.1177 73 37 73Z" stroke="#979797"/>
</svg>
