<svg width="74" height="74" viewBox="0 0 74 74" fill="none" xmlns="http://www.w3.org/2000/svg">
<path d="M37 73C56.8823 73 73 56.8823 73 37C73 17.1177 56.8823 1 37 1C17.1177 1 1 17.1177 1 37C1 56.8823 17.1177 73 37 73Z" stroke="#979797"/>
<path fill-rule="evenodd" clip-rule="evenodd" d="M49.6962 50.8189C48.1502 50.8189 46.8922 49.5609 46.8922 48.0159C46.8922 46.4699 48.1502 45.2129 49.6962 45.2129C51.2422 45.2129 52.5002 46.4709 52.5002 48.0159C52.5002 49.5619 51.2422 50.8189 49.6962 50.8189ZM33.4572 36.6439C33.4572 34.0309 35.5842 31.9039 38.1972 31.9039C40.8122 31.9039 42.9402 34.0309 42.9402 36.6439C42.9402 38.1869 42.1992 39.5599 41.0532 40.4259C41.0262 40.4439 41.0002 40.4629 40.9752 40.4829C40.1942 41.0489 39.2342 41.3849 38.1972 41.3849C35.5842 41.3849 33.4572 39.2579 33.4572 36.6439ZM23.0792 50.0439C21.1052 50.0439 19.5002 48.4379 19.5002 46.4649C19.5002 44.4909 21.1052 42.8859 23.0792 42.8859C25.0512 42.8859 26.6582 44.4909 26.6582 46.4649C26.6582 48.4369 25.0512 50.0439 23.0792 50.0439ZM40.4572 19.4999C41.8262 19.4999 42.9392 20.6119 42.9392 21.9799C42.9392 23.3469 41.8252 24.4599 40.4572 24.4599C39.0902 24.4599 37.9782 23.3469 37.9782 21.9799C37.9782 20.6119 39.0912 19.4999 40.4572 19.4999ZM49.6962 43.7139C48.7252 43.7139 47.8302 44.0359 47.1092 44.5799L42.6342 41.0319C43.7502 39.9029 44.4402 38.3529 44.4402 36.6449C44.4402 33.4669 42.0512 30.8379 38.9742 30.4529L39.9162 25.9229C40.0922 25.9459 40.2732 25.9599 40.4572 25.9599C42.6522 25.9599 44.4382 24.1739 44.4382 21.9799C44.4382 19.7849 42.6522 18.0009 40.4572 18.0009C38.2632 18.0009 36.4782 19.7849 36.4782 21.9799C36.4782 23.4569 37.2882 24.7479 38.4852 25.4339L37.4632 30.3549C37.4572 30.3859 37.4532 30.4179 37.4502 30.4489C34.3602 30.8199 31.9572 33.4569 31.9572 36.6449C31.9572 37.3919 32.0902 38.1099 32.3322 38.7739C32.3182 38.7829 32.3032 38.7899 32.2902 38.7989L26.4722 42.6819C26.4702 42.6829 26.4692 42.6849 26.4672 42.6859C25.5682 41.8789 24.3802 41.3859 23.0792 41.3859C20.2782 41.3859 18.0002 43.6649 18.0002 46.4649C18.0002 49.2649 20.2782 51.5439 23.0792 51.5439C25.8802 51.5439 28.1582 49.2649 28.1582 46.4649C28.1582 45.5079 27.8912 44.6129 27.4292 43.8479L33.0162 40.1189C34.1372 41.7869 36.0422 42.8859 38.1972 42.8859C39.3772 42.8859 40.4812 42.5569 41.4242 41.9859L46.0852 45.6809C45.6472 46.3539 45.3922 47.1559 45.3922 48.0159C45.3922 50.3889 47.3232 52.3199 49.6962 52.3199C52.0692 52.3199 54.0002 50.3889 54.0002 48.0159C54.0002 45.6429 52.0692 43.7139 49.6962 43.7139Z" fill="#D3D3D3"/>
</svg>
