<svg width="74" height="74" viewBox="0 0 74 74" fill="none" xmlns="http://www.w3.org/2000/svg">
<path d="M17.9682 37V25.9H16.0482V23.66H20.5682V37H17.9682ZM32.6891 35.46C31.6891 36.6867 30.4758 37.3 29.0491 37.3C27.6225 37.3 26.4025 36.6867 25.3891 35.46C24.3891 34.22 23.8891 32.5067 23.8891 30.32C23.8891 28.1467 24.3891 26.4467 25.3891 25.22C26.4025 23.98 27.6225 23.36 29.0491 23.36C30.4758 23.36 31.6891 23.98 32.6891 25.22C33.7025 26.4467 34.2091 28.1533 34.2091 30.34C34.2091 32.5133 33.7025 34.22 32.6891 35.46ZM30.8091 26.78C30.2891 25.9933 29.7025 25.6 29.0491 25.6C28.3958 25.6 27.8025 25.9933 27.2691 26.78C26.7491 27.5533 26.4891 28.7333 26.4891 30.32C26.4891 31.9067 26.7491 33.0933 27.2691 33.88C27.7891 34.6667 28.3825 35.06 29.0491 35.06C29.7158 35.06 30.3091 34.6667 30.8291 33.88C31.3491 33.0933 31.6091 31.9067 31.6091 30.32C31.6091 28.7333 31.3425 27.5533 30.8091 26.78ZM44.0563 35.46C43.0563 36.6867 41.843 37.3 40.4163 37.3C38.9897 37.3 37.7697 36.6867 36.7563 35.46C35.7563 34.22 35.2563 32.5067 35.2563 30.32C35.2563 28.1467 35.7563 26.4467 36.7563 25.22C37.7697 23.98 38.9897 23.36 40.4163 23.36C41.843 23.36 43.0563 23.98 44.0563 25.22C45.0697 26.4467 45.5763 28.1533 45.5763 30.34C45.5763 32.5133 45.0697 34.22 44.0563 35.46ZM42.1763 26.78C41.6563 25.9933 41.0697 25.6 40.4163 25.6C39.763 25.6 39.1697 25.9933 38.6363 26.78C38.1163 27.5533 37.8563 28.7333 37.8563 30.32C37.8563 31.9067 38.1163 33.0933 38.6363 33.88C39.1563 34.6667 39.7497 35.06 40.4163 35.06C41.083 35.06 41.6763 34.6667 42.1963 33.88C42.7163 33.0933 42.9763 31.9067 42.9763 30.32C42.9763 28.7333 42.7097 27.5533 42.1763 26.78ZM47.6035 24.4C48.2168 23.8 49.0368 23.5 50.0635 23.5C51.0902 23.5 51.9035 23.8 52.5035 24.4C53.1168 24.9867 53.4235 25.74 53.4235 26.66C53.4235 27.58 53.1168 28.34 52.5035 28.94C51.9035 29.5267 51.0902 29.82 50.0635 29.82C49.0368 29.82 48.2168 29.5267 47.6035 28.94C47.0035 28.34 46.7035 27.58 46.7035 26.66C46.7035 25.74 47.0035 24.9867 47.6035 24.4ZM48.8435 27.9C49.1635 28.22 49.5702 28.38 50.0635 28.38C50.5568 28.38 50.9568 28.22 51.2635 27.9C51.5835 27.58 51.7435 27.1667 51.7435 26.66C51.7435 26.1533 51.5835 25.74 51.2635 25.42C50.9568 25.1 50.5568 24.94 50.0635 24.94C49.5702 24.94 49.1635 25.1 48.8435 25.42C48.5368 25.74 48.3835 26.1533 48.3835 26.66C48.3835 27.1667 48.5368 27.58 48.8435 27.9ZM49.3435 36.94L57.2835 23.22L58.3435 23.82L50.4035 37.56L49.3435 36.94ZM55.1635 31.78C55.7768 31.18 56.5968 30.88 57.6235 30.88C58.6502 30.88 59.4635 31.18 60.0635 31.78C60.6768 32.3667 60.9835 33.12 60.9835 34.04C60.9835 34.96 60.6768 35.72 60.0635 36.32C59.4635 36.9067 58.6502 37.2 57.6235 37.2C56.5968 37.2 55.7768 36.9067 55.1635 36.32C54.5635 35.72 54.2635 34.96 54.2635 34.04C54.2635 33.12 54.5635 32.3667 55.1635 31.78ZM56.4035 35.28C56.7235 35.6 57.1302 35.76 57.6235 35.76C58.1168 35.76 58.5168 35.6 58.8235 35.28C59.1435 34.96 59.3035 34.5467 59.3035 34.04C59.3035 33.5333 59.1435 33.12 58.8235 32.8C58.5168 32.48 58.1168 32.32 57.6235 32.32C57.1302 32.32 56.7235 32.48 56.4035 32.8C56.0968 33.12 55.9435 33.5333 55.9435 34.04C55.9435 34.5467 56.0968 34.96 56.4035 35.28ZM23.8198 41.938H25.5278V44.29L27.7958 41.938H29.9238L27.1798 44.64L30.0638 48H27.8798L25.7798 45.494L25.5278 45.746V48H23.8198V41.938ZM30.8198 41.938H32.5278V44.29L34.7958 41.938H36.9238L34.1798 44.64L37.0638 48H34.8798L32.7798 45.494L32.5278 45.746V48H30.8198V41.938ZM42.4678 42.722V41.938H44.1758V48H42.4678V47.216C42.0105 47.8693 41.3898 48.196 40.6058 48.196C39.6911 48.196 38.9445 47.8833 38.3658 47.258C37.7965 46.6327 37.5118 45.8673 37.5118 44.962C37.5118 44.0473 37.7918 43.282 38.3518 42.666C38.9118 42.05 39.6351 41.742 40.5218 41.742C41.3991 41.742 42.0478 42.0687 42.4678 42.722ZM42.1598 43.744C41.8425 43.4173 41.4411 43.254 40.9558 43.254C40.4705 43.254 40.0691 43.4173 39.7518 43.744C39.4345 44.0707 39.2758 44.4767 39.2758 44.962C39.2758 45.4473 39.4345 45.858 39.7518 46.194C40.0691 46.5207 40.4705 46.684 40.9558 46.684C41.4411 46.684 41.8425 46.5207 42.1598 46.194C42.4771 45.858 42.6358 45.4473 42.6358 44.962C42.6358 44.4767 42.4771 44.0707 42.1598 43.744ZM51.1802 41.938V48H49.4722V43.394H47.8202V45.62C47.8202 46.404 47.6289 47.0013 47.2462 47.412C46.8635 47.8413 46.3175 48.056 45.6082 48.056C45.4215 48.056 45.2535 48.0373 45.1042 48V46.544C45.2162 46.5627 45.3049 46.572 45.3702 46.572C45.6782 46.572 45.9115 46.474 46.0702 46.278C46.2102 46.11 46.2802 45.8533 46.2802 45.508V41.938H51.1802Z" fill="#D3D3D3"/>
<path d="M37 73C56.8823 73 73 56.8823 73 37C73 17.1177 56.8823 1 37 1C17.1177 1 1 17.1177 1 37C1 56.8823 17.1177 73 37 73Z" stroke="#979797"/>
</svg>
