<svg width="74" height="74" viewBox="0 0 74 74" fill="none" xmlns="http://www.w3.org/2000/svg">
<path d="M37 73C56.8823 73 73 56.8823 73 37C73 17.1177 56.8823 1 37 1C17.1177 1 1 17.1177 1 37C1 56.8823 17.1177 73 37 73Z" stroke="#979797"/>
<mask id="mask0" mask-type="alpha" maskUnits="userSpaceOnUse" x="24" y="11" width="26" height="47">
<path fill-rule="evenodd" clip-rule="evenodd" d="M24 11H49.4759V57.517H24V11Z" fill="white"/>
</mask>
<g mask="url(#mask0)">
<path fill-rule="evenodd" clip-rule="evenodd" d="M48.2569 56.2675H43.9029C43.6269 49.2605 38.6089 48.6135 37.0409 48.5855C36.9829 48.5895 36.9149 48.5975 36.8559 48.6195C36.1079 48.5835 33.8219 48.6265 31.9849 50.2615C30.4879 51.5925 29.6789 53.6215 29.5729 56.2955H25.2179V55.2845C26.0559 54.5865 28.7339 52.0475 31.3279 46.3295H42.0709C44.6869 52.0645 47.4009 54.5705 48.2579 55.2625V56.2675H48.2569ZM30.7309 43.3635H31.1899H32.5469H40.8509H42.2049H42.7459L42.5149 44.1295L42.2179 45.1115H41.5389H31.8609H31.2579L30.9289 44.0195L30.7309 43.3635ZM34.0279 38.7905H39.3719C39.7039 39.9885 40.0539 41.1005 40.4129 42.1445H32.9839C33.3439 41.0995 33.6939 39.9885 34.0279 38.7905ZM33.3249 35.8245H33.4909H34.7779H38.6229H39.9079H40.2749L40.0719 36.4935L39.7459 37.5715H39.0479H34.3519H33.8549L33.4179 36.1275L33.3249 35.8245ZM36.7129 22.4375C37.0439 27.0835 37.6269 31.1115 38.3609 34.6055H35.0419C35.7809 31.1075 36.3729 27.0805 36.7129 22.4375ZM37.6399 17.3455C37.6389 17.3495 37.6379 17.3525 37.6359 17.3555C37.6279 17.3795 37.6159 17.4035 37.6069 17.4265C37.5499 17.5365 37.4829 17.6335 37.4099 17.7235C37.3019 17.8595 37.1839 17.9735 37.0709 18.0645C36.9669 18.1175 36.8549 18.1515 36.7379 18.1515C36.6849 18.1515 36.6329 18.1415 36.5809 18.1295C36.4569 18.0365 36.3189 17.9125 36.1909 17.7575C36.0359 17.5745 35.8999 17.3495 35.8349 17.0785C35.8079 16.9685 35.7909 16.8535 35.7909 16.7305C35.7909 16.6135 35.7939 16.5115 35.7979 16.4165C35.9249 15.8715 36.3019 15.4615 36.7379 15.4615C37.2749 15.4615 37.7289 16.0775 37.7289 16.8065C37.7289 16.9875 37.6999 17.1615 37.6509 17.3205C37.6459 17.3295 37.6439 17.3375 37.6399 17.3455ZM49.2169 54.4625C49.1609 54.4225 46.1849 52.2255 43.2629 45.8675L44.1509 42.9305C44.2049 42.7465 44.1709 42.5455 44.0559 42.3905C43.9419 42.2365 43.7599 42.1445 43.5669 42.1445H41.7539C41.3639 41.0535 40.9869 39.8715 40.6279 38.6035C40.6949 38.5345 40.7529 38.4555 40.7819 38.3575L41.6779 35.3915C41.7339 35.2065 41.6979 35.0075 41.5829 34.8525C41.4689 34.6975 41.2869 34.6065 41.0939 34.6065H39.6359C38.7069 30.3215 38.0139 25.1895 37.7499 19.0795C37.7669 19.0675 37.7829 19.0545 37.8009 19.0405C38.1749 18.7995 38.4789 18.4405 38.6799 18.0015C38.8679 17.6475 38.9979 17.2255 38.9979 16.7315C38.9979 15.0555 38.3959 14.6295 37.6089 14.2475C37.5199 14.2045 37.4319 14.1635 37.3469 14.1175V11.6095C37.3469 11.2735 37.0729 10.9995 36.7369 10.9995C36.4009 10.9995 36.1279 11.2735 36.1279 11.6095V14.1195C36.0489 14.1635 35.9699 14.2035 35.8929 14.2425C35.2039 14.5905 34.6969 14.9565 34.5939 16.2195C34.5549 16.4105 34.5279 16.6055 34.5279 16.8085C34.5279 17.7775 34.9989 18.6115 35.6829 19.0465C35.4089 25.1635 34.7029 30.3075 33.7659 34.6075H32.5039C32.3119 34.6075 32.1299 34.6985 32.0149 34.8535C31.8999 35.0075 31.8649 35.2075 31.9209 35.3925L32.8179 38.3585C32.8199 38.3685 32.8269 38.3755 32.8309 38.3855C32.4519 39.7395 32.0529 40.9915 31.6409 42.1465H29.9089C29.7169 42.1465 29.5349 42.2375 29.4199 42.3925C29.3049 42.5465 29.2709 42.7465 29.3249 42.9315L30.1829 45.7705C27.2709 52.1875 24.3069 54.4565 24.2519 54.4975C24.0939 54.6125 23.9999 54.7955 23.9999 54.9915V56.9075C23.9999 57.2445 24.2739 57.5175 24.6099 57.5175H30.1709C30.5069 57.5175 30.7799 57.2445 30.7799 56.9075C30.7799 54.2995 31.4539 52.3735 32.7839 51.1835C34.5519 49.6025 36.9359 49.8475 36.9599 49.8495C37.0459 49.8605 37.1349 49.8445 37.2159 49.8125C39.0119 49.8995 42.6949 50.8195 42.6949 56.8785C42.6949 57.2155 42.9689 57.4885 43.3049 57.4885H48.8659C49.2029 57.4885 49.4759 57.2155 49.4759 56.8785V54.9625C49.4759 54.7635 49.3779 54.5765 49.2169 54.4625Z" fill="#D3D3D3"/>
</g>
</svg>
