<svg width="74" height="74" viewBox="0 0 74 74" fill="none" xmlns="http://www.w3.org/2000/svg">
<path d="M37 73C56.8823 73 73 56.8823 73 37C73 17.1177 56.8823 1 37 1C17.1177 1 1 17.1177 1 37C1 56.8823 17.1177 73 37 73Z" stroke="#979797"/>
<path fill-rule="evenodd" clip-rule="evenodd" d="M28.9888 53.2616C29.1938 53.2616 29.3938 53.2576 29.5858 53.2526C31.6088 53.1936 33.5318 52.2226 35.3918 51.2826C36.1028 50.9246 36.7738 50.5856 37.4268 50.3116C38.2338 49.9706 39.1618 49.8656 40.1428 49.7556C40.6338 49.6996 41.1388 49.6436 41.6308 49.5536C43.4788 49.2176 44.8558 48.7826 46.2318 48.1016C50.8858 45.7986 51.9238 39.8306 50.8868 34.9396C50.8098 34.5746 50.4548 34.3446 50.0908 34.4206C49.7268 34.4976 49.4948 34.8556 49.5718 35.2176C50.5008 39.6026 49.6438 44.9126 45.6358 46.8966C44.3778 47.5196 43.1068 47.9186 41.3888 48.2316C40.9428 48.3126 40.4818 48.3646 39.9928 48.4186C38.9598 48.5356 37.8898 48.6566 36.9038 49.0726C36.2098 49.3656 35.5168 49.7136 34.7868 50.0826C33.0578 50.9556 31.2698 51.8586 29.5458 51.9076C28.5808 51.9376 27.2058 51.9206 26.3928 51.4506C25.6878 51.0436 24.8968 50.5556 24.4288 49.9036C23.3688 48.4206 23.0918 46.5036 23.5818 44.0436C24.1148 41.3656 24.6498 39.2846 25.3158 37.2996C25.5268 36.6736 25.6538 36.0476 25.7768 35.4426C25.8288 35.1876 25.8808 34.9306 25.9398 34.6716C26.0888 34.0166 26.0858 33.3716 26.0818 32.7496C26.0788 32.1996 26.0768 31.6826 26.1778 31.1956C26.4958 29.6706 27.1448 27.5496 28.4368 26.1156C28.8718 25.6316 29.6548 25.1866 30.6418 24.8636C31.4918 24.5846 33.9098 24.1426 35.5678 24.6396C35.9258 24.7456 36.2988 24.5436 36.4048 24.1886C36.5108 23.8336 36.3078 23.4586 35.9538 23.3516C33.9728 22.7596 31.2378 23.2526 30.2238 23.5846C29.3698 23.8656 28.1918 24.3756 27.4368 25.2166C25.9448 26.8726 25.2118 29.2346 24.8608 30.9216C24.7308 31.5466 24.7348 32.1606 24.7368 32.7556C24.7398 33.3276 24.7428 33.8686 24.6278 34.3736C24.5668 34.6416 24.5128 34.9086 24.4588 35.1736C24.3388 35.7656 24.2238 36.3246 24.0408 36.8716C23.3548 38.9126 22.8068 41.0436 22.2618 43.7806C21.6948 46.6236 22.0468 48.8826 23.3358 50.6846C23.9598 51.5546 24.8918 52.1356 25.7188 52.6136C26.6448 53.1506 27.8888 53.2616 28.9888 53.2616Z" fill="#D3D3D3"/>
<path fill-rule="evenodd" clip-rule="evenodd" d="M44.4029 41.8885C44.6369 41.8885 44.8599 41.7655 44.9829 41.5555C45.2019 41.1805 45.4499 40.8015 45.7019 40.4165C46.1999 39.6565 46.7139 38.8685 47.0829 38.0225C47.5519 36.9465 47.7049 35.7525 47.5499 34.6155C47.7869 34.7415 48.0259 34.8425 48.2489 34.9375C48.3689 34.9895 48.4879 35.0385 48.6039 35.0925C49.6919 35.5925 50.9729 36.1805 52.1309 36.3735C52.3399 36.4085 52.5529 36.3425 52.7069 36.1945C52.8599 36.0465 52.9339 35.8355 52.9079 35.6245C52.8659 35.2945 52.6959 34.9935 52.5449 34.7295C52.4879 34.6285 52.4299 34.5315 52.3909 34.4405C52.3389 34.3175 52.2879 34.1905 52.2369 34.0645C52.1449 33.8365 52.0519 33.6065 51.9469 33.3825C51.5549 32.5475 51.1119 31.6005 50.3409 30.7265C49.9229 30.2505 49.4059 29.9115 48.9059 29.5835C48.7399 29.4745 48.5769 29.3675 48.4209 29.2555C47.7069 28.7475 47.0799 28.4325 46.1589 28.4295H46.1569C45.7869 28.4295 45.4859 28.7295 45.4849 29.1005C45.4839 29.4715 45.7839 29.7735 46.1559 29.7745C46.7299 29.7765 47.1059 29.9695 47.6409 30.3515C47.8109 30.4725 47.9899 30.5885 48.1689 30.7065C48.6129 30.9985 49.0339 31.2745 49.3339 31.6155C49.9299 32.2915 50.2889 33.0105 50.7299 33.9535C50.8249 34.1545 50.9079 34.3615 50.9899 34.5665C51.0049 34.6025 51.0179 34.6375 51.0329 34.6725C50.4089 34.4415 49.7759 34.1525 49.2229 33.8975C49.0379 33.8135 48.9079 33.7575 48.7769 33.7005C48.4049 33.5425 48.0539 33.3925 47.7869 33.1735C47.6679 33.0755 47.5509 32.9675 47.4359 32.8585C47.1809 32.6205 46.8919 32.3515 46.5449 32.1555C46.2799 32.0035 45.9479 32.0515 45.7339 32.2685C45.5209 32.4855 45.4799 32.8195 45.6339 33.0795C46.3919 34.3655 46.4749 36.0525 45.8499 37.4845C45.5849 38.0925 45.2139 38.6985 44.8299 39.2905C44.7429 39.0115 44.6319 38.7415 44.4919 38.4695C44.2709 38.0355 43.9999 37.6475 43.7379 37.2715C43.4589 36.8705 43.1959 36.4925 43.0059 36.0875C42.6419 35.3115 42.6269 34.5645 42.6079 33.6985C42.5999 33.3725 42.5929 33.0395 42.5689 32.6945C42.5499 32.4355 42.3839 32.2105 42.1429 32.1165C41.9029 32.0215 41.6289 32.0735 41.4389 32.2515C41.3379 32.3465 41.2599 32.4345 41.1889 32.5175C41.1029 32.6175 41.0749 32.6485 41.0119 32.6835C40.6549 32.8795 40.2269 33.0555 39.8699 33.1495C39.0289 33.3735 38.2089 33.0835 37.4469 32.7385C36.9689 32.5215 36.5069 32.2235 36.0169 31.9095C35.3659 31.4925 34.6929 31.0595 33.9339 30.7935C33.5629 30.6645 33.1729 30.6395 32.8279 30.6445C32.9609 30.4465 33.1619 30.1925 33.4599 29.8875C33.8649 29.4705 34.6409 29.0085 35.4379 28.7105C36.1189 28.4565 36.9459 28.3275 37.8959 28.3275C38.0639 28.3275 38.2599 28.3195 38.4679 28.3095C38.9569 28.2855 39.6949 28.2505 40.0019 28.4055C40.2749 28.5415 40.6049 28.4775 40.8069 28.2505C41.0089 28.0225 41.0319 27.6865 40.8639 27.4325C40.6209 27.0685 40.2179 26.9425 39.9249 26.8515C39.8469 26.8265 39.7709 26.8065 39.7089 26.7765C39.3929 26.6275 39.0979 26.3845 38.7859 26.1275L38.5699 25.9515C37.9799 25.4775 37.4409 24.9645 36.9219 24.3835C36.4599 23.8665 36.0949 23.3365 35.8449 22.8275C35.8939 22.8375 35.9419 22.8465 35.9889 22.8565C36.1029 22.8785 36.2119 22.8995 36.3059 22.9215C36.7329 23.0245 37.1589 23.0765 37.5699 23.1275C38.0579 23.1885 38.5189 23.2445 38.9439 23.3765C39.6859 23.6075 40.4389 23.9975 41.2449 24.5705C42.0889 25.1695 42.6789 26.0875 43.1069 27.4615C43.2159 27.8165 43.5929 28.0135 43.9479 27.9045C44.3019 27.7935 44.5009 27.4165 44.3899 27.0625C43.8719 25.3935 43.1199 24.2525 42.0239 23.4745C41.0999 22.8185 40.2229 22.3665 39.3429 22.0935C38.8029 21.9255 38.2599 21.8585 37.7359 21.7935C37.3429 21.7445 36.9729 21.6995 36.6219 21.6155C36.5109 21.5885 36.3829 21.5625 36.2469 21.5365C36.0019 21.4885 35.4249 21.3755 35.3159 21.2445C35.1279 21.0175 34.8079 20.9375 34.5359 21.0515C34.2629 21.1675 34.0949 21.4445 34.1269 21.7395C34.2789 23.1735 35.1849 24.4555 35.9179 25.2795C36.4829 25.9105 37.0689 26.4695 37.7109 26.9865C36.6749 27.0015 35.7539 27.1595 34.9679 27.4525C34.5929 27.5935 33.3079 28.1155 32.4959 28.9515C31.5009 29.9745 31.1029 30.8075 31.2829 31.4985C31.3569 31.7835 31.6069 31.9865 31.8999 32.0005C32.1029 32.0095 32.3129 32.0035 32.5269 31.9975C32.8899 31.9865 33.2349 31.9755 33.4899 32.0645C34.0989 32.2785 34.6779 32.6495 35.2909 33.0425C35.7989 33.3685 36.3259 33.7065 36.8929 33.9645C37.8329 34.3915 38.9639 34.7845 40.2149 34.4515C40.5499 34.3625 40.9209 34.2245 41.2719 34.0595C41.2959 34.8895 41.3619 35.7475 41.7889 36.6595C42.0279 37.1685 42.3369 37.6125 42.6339 38.0405C42.8819 38.3955 43.1159 38.7315 43.2959 39.0825C43.6219 39.7205 43.7439 40.3165 43.7299 41.2065C43.7249 41.5115 43.9269 41.7815 44.2209 41.8645C44.2819 41.8795 44.3419 41.8885 44.4029 41.8885Z" fill="#D3D3D3"/>
<path fill-rule="evenodd" clip-rule="evenodd" d="M42.8716 31.2723C43.0276 31.2723 43.1846 31.2183 43.3126 31.1063C47.6996 27.2803 48.3316 22.7723 48.3556 22.5833C48.4036 22.2143 48.1446 21.8763 47.7766 21.8293C47.4116 21.7783 47.0716 22.0403 47.0226 22.4083C47.0156 22.4713 46.4046 26.6263 42.4296 30.0943C42.1486 30.3383 42.1206 30.7633 42.3646 31.0433C42.4976 31.1953 42.6846 31.2723 42.8716 31.2723Z" fill="#D3D3D3"/>
<path fill-rule="evenodd" clip-rule="evenodd" d="M29.986 37.0916C30.299 37.0916 30.58 36.8706 30.644 36.5516L30.88 35.3796C30.953 35.0146 30.717 34.6586 30.353 34.5856C29.696 34.4546 29.646 34.6976 29.327 36.2866C29.254 36.6516 29.489 37.0056 29.853 37.0786C29.897 37.0876 29.941 37.0916 29.986 37.0916Z" fill="#D3D3D3"/>
<path fill-rule="evenodd" clip-rule="evenodd" d="M36.2837 39.2782C36.4897 39.2782 36.6917 39.1832 36.8237 39.0072C36.8237 39.0072 37.4317 38.1882 37.4987 38.0982C37.5037 38.0922 37.5077 38.0882 37.5117 38.0822C37.7287 37.7842 37.6647 37.3632 37.3667 37.1432C37.0037 36.8782 36.8087 36.8912 36.4417 37.3052L36.4247 37.2922C36.3977 37.3272 36.3767 37.3652 36.3577 37.4032C36.1957 37.5982 35.9987 37.8632 35.7447 38.2052C35.5227 38.5032 35.5857 38.9242 35.8837 39.1452C36.0047 39.2352 36.1437 39.2782 36.2837 39.2782Z" fill="#D3D3D3"/>
<path fill-rule="evenodd" clip-rule="evenodd" d="M40.6529 44.2635C40.8019 44.2635 40.9529 44.2145 41.0769 44.1125L41.9599 43.3935C41.9629 43.3915 41.9649 43.3895 41.9669 43.3875C42.2539 43.1525 42.2979 42.7285 42.0619 42.4415C41.7759 42.0915 41.5859 42.0585 41.1289 42.3675L41.1139 42.3495C41.0779 42.3775 41.0469 42.4095 41.0179 42.4455C40.8119 42.5945 40.5569 42.8025 40.2269 43.0715C39.9399 43.3065 39.8969 43.7295 40.1319 44.0175C40.2649 44.1785 40.4579 44.2635 40.6529 44.2635Z" fill="#D3D3D3"/>
<path fill-rule="evenodd" clip-rule="evenodd" d="M36.6285 46.9315C36.7775 46.9315 36.9275 46.8825 37.0525 46.7805C37.3825 46.5125 37.6375 46.3035 37.8245 46.1325C37.8635 46.1135 37.9005 46.0885 37.9375 46.0595L37.9225 46.0425C38.3185 45.6575 38.3225 45.4625 38.0385 45.1135C37.8055 44.8245 37.3815 44.7825 37.0935 45.0135C37.0905 45.0155 37.0865 45.0185 37.0845 45.0215L36.2025 45.7385C35.9155 45.9735 35.8725 46.3965 36.1065 46.6845C36.2385 46.8465 36.4335 46.9315 36.6285 46.9315Z" fill="#D3D3D3"/>
<path fill-rule="evenodd" clip-rule="evenodd" d="M31.4733 49.2752C31.6213 49.2752 31.7723 49.2262 31.8973 49.1252L32.7843 48.4022C33.0713 48.1672 33.1163 47.7432 32.8813 47.4552C32.5963 47.1062 32.4073 47.0702 31.9503 47.3782L31.9353 47.3602C31.8993 47.3892 31.8663 47.4222 31.8373 47.4582C31.6323 47.6072 31.3763 47.8152 31.0473 48.0842C30.7593 48.3182 30.7163 48.7422 30.9513 49.0292C31.0843 49.1912 31.2773 49.2752 31.4733 49.2752Z" fill="#D3D3D3"/>
<path fill-rule="evenodd" clip-rule="evenodd" d="M32.7759 43.5399C32.9819 43.5399 33.1839 43.4459 33.3169 43.2689C33.3169 43.2689 33.9129 42.4679 33.9889 42.3649C33.9959 42.3569 34.0019 42.3499 34.0069 42.3409C34.2219 42.0419 34.1559 41.6229 33.8579 41.4049C33.4939 41.1399 33.2989 41.1539 32.9319 41.5699L32.9149 41.5579C32.8899 41.5909 32.8699 41.6279 32.8519 41.6629C32.6889 41.8579 32.4929 42.1239 32.2369 42.4659C32.0159 42.7639 32.0779 43.1849 32.3759 43.4059C32.4969 43.4969 32.6369 43.5399 32.7759 43.5399Z" fill="#D3D3D3"/>
<path fill-rule="evenodd" clip-rule="evenodd" d="M28.5142 41.8885C28.8282 41.8885 29.1092 41.6675 29.1722 41.3475C29.1722 41.3475 29.3802 40.3085 29.4052 40.1895C29.4072 40.1825 29.4082 40.1755 29.4092 40.1665C29.4782 39.8045 29.2412 39.4515 28.8772 39.3815C28.4342 39.2955 28.2692 39.3775 28.1102 39.9235L28.0882 39.9195C28.0792 39.9625 28.0762 40.0055 28.0762 40.0485C28.0102 40.3035 27.9432 40.6415 27.8542 41.0835C27.7822 41.4485 28.0182 41.8015 28.3812 41.8745C28.4262 41.8835 28.4712 41.8885 28.5142 41.8885Z" fill="#D3D3D3"/>
<path fill-rule="evenodd" clip-rule="evenodd" d="M27.6002 47.2049C27.6902 46.7619 27.7562 46.4239 27.7942 46.1629C27.8102 46.1239 27.8242 46.0839 27.8332 46.0399L27.8112 46.0349C27.8752 45.4709 27.7542 45.3309 27.3142 45.2389C26.9462 45.1629 26.5962 45.3969 26.5192 45.7579C26.5172 45.7669 26.5162 45.7729 26.5142 45.7809C26.4912 45.9029 26.2822 46.9379 26.2822 46.9379L27.6002 47.2049Z" fill="#D3D3D3"/>
</svg>
