<svg width="74" height="74" viewBox="0 0 74 74" fill="none" xmlns="http://www.w3.org/2000/svg">
<path d="M37 73C56.8823 73 73 56.8823 73 37C73 17.1177 56.8823 1 37 1C17.1177 1 1 17.1177 1 37C1 56.8823 17.1177 73 37 73Z" stroke="#979797"/>
<path d="M48.9875 33.8478C48.1995 31.2661 48.1951 28.4948 48.676 25.8547C48.9937 24.1105 49.4902 22.3199 50.2844 20.7261C50.5727 20.152 49.6826 19.7051 49.3943 20.279C48.6066 21.8471 48.106 23.6061 47.7637 25.3185C47.3081 27.5984 47.203 29.9634 47.5937 32.261C47.7769 33.3379 48.0792 34.3857 48.4731 35.4042C45.8172 36.2788 42.9736 36.6885 40.1924 36.8866C36.6835 37.1365 33.1343 36.979 29.6669 36.3775C28.2741 36.1359 26.8784 35.8344 25.5365 35.3848C27.2218 31.0133 26.8478 26.1531 25.2496 21.8122C25.0587 21.2937 24.8559 20.7735 24.6078 20.2791C24.3196 19.7054 23.43 20.1518 23.7174 20.7259C24.5633 22.4112 25.0746 24.326 25.3821 26.1768C25.8641 29.077 25.715 32.0487 24.6863 34.8183C24.1566 36.2443 23.4259 37.5735 22.675 38.8922C20.7282 42.311 18.8894 45.5403 20.8233 53.4956C20.9747 54.1185 21.9431 53.8847 21.7913 53.2603C20.4133 47.5919 20.9997 44.5297 22.1897 41.9289C22.5979 41.9664 24.0179 42.1457 25.9395 42.9242C28.0428 43.7763 31.1961 45.542 34.2739 49.1151C34.7915 49.7159 35.5716 50.0856 36.5028 50.1823V53.5089C36.5028 54.1513 37.499 54.1513 37.499 53.5089V50.1775C38.3501 50.0744 39.1345 49.7105 39.7027 49.1422C43.5165 45.3285 46.6636 43.5674 48.6322 42.7615C50.2694 42.0914 51.3818 41.954 51.811 41.9264C53.0019 44.5278 53.589 47.59 52.2106 53.2602C52.0588 53.8846 53.0271 54.1184 53.1786 53.4955C55.1125 45.5402 53.2738 42.3109 51.327 38.8919C50.4794 37.4035 49.6029 35.8643 48.9875 33.8478ZM38.9983 48.4378C38.5061 48.9301 37.7781 49.2125 37.001 49.2125C36.1568 49.2125 35.438 48.94 35.0288 48.4649C31.803 44.7201 28.4815 42.8717 26.263 41.9805C24.6265 41.3231 23.342 41.0736 22.6571 40.9798C23.4767 39.414 24.4328 37.9243 25.1537 36.307C27.8133 37.223 30.6953 37.6374 33.4898 37.8566C37.1566 38.1442 40.8695 37.9938 44.4958 37.3721C45.9662 37.12 47.4414 36.8045 48.8567 36.3267C49.5748 37.933 50.5241 39.4137 51.3392 40.9692C49.6549 41.179 45.1103 42.3259 38.9983 48.4378Z" fill="#DADADA"/>
<path d="M51.4403 34.545C51.8151 35.065 52.6243 34.4839 52.2482 33.9624C50.2895 31.2462 51.1879 27.4757 51.1986 27.4319C51.3533 26.8088 50.3874 26.5685 50.2319 27.1914C50.1891 27.3637 49.2056 31.4462 51.4403 34.545Z" fill="#DADADA"/>
<path d="M21.7667 34.6576C21.9871 34.8166 22.3033 34.765 22.462 34.545C24.6967 31.4461 23.7133 27.3636 23.6703 27.1913C23.5148 26.5681 22.5483 26.809 22.7037 27.4323C22.7131 27.4701 23.6212 31.2344 21.654 33.9624C21.4931 34.1854 21.5436 34.4968 21.7667 34.6576Z" fill="#DADADA"/>
<path d="M20.2068 32.2544C20.4272 32.4133 20.7434 32.3618 20.9021 32.1417C21.9232 30.7257 21.4777 28.8757 21.4583 28.7977C21.3032 28.176 20.3399 28.415 20.4914 29.0374C20.4949 29.0521 20.8413 30.5229 20.0941 31.5591C19.9332 31.7822 19.9836 32.0935 20.2068 32.2544Z" fill="#DADADA"/>
<path d="M53.5048 32.3486C53.9026 32.3486 54.1408 31.8814 53.9084 31.5591C53.1646 30.5276 53.5045 29.0653 53.5111 29.0378C53.6649 28.4148 52.6996 28.1751 52.5442 28.7978C52.5248 28.8759 52.0793 30.7258 53.1004 32.1418C53.1978 32.2768 53.3502 32.3486 53.5048 32.3486Z" fill="#DADADA"/>
<path d="M36.8352 34.5903C37.1104 34.5903 37.3333 34.3673 37.3333 34.0922V32.3895C37.3333 31.7471 36.3372 31.7471 36.3372 32.3895V34.0922C36.3372 34.3674 36.5602 34.5903 36.8352 34.5903Z" fill="#DADADA"/>
</svg>
