<svg width="74" height="74" viewBox="0 0 74 74" fill="none" xmlns="http://www.w3.org/2000/svg">
<path d="M37 73C56.8823 73 73 56.8823 73 37C73 17.1177 56.8823 1 37 1C17.1177 1 1 17.1177 1 37C1 56.8823 17.1177 73 37 73Z" stroke="#979797"/>
<path fill-rule="evenodd" clip-rule="evenodd" d="M38.8158 37.9371C39.0558 37.8061 39.2118 37.7641 39.4148 37.5641C39.6528 37.3471 39.9578 37.0031 40.0308 36.5631C40.1278 35.8401 39.5308 35.3171 38.8408 35.1141C38.6088 35.0161 36.7818 34.3601 36.6748 34.3291C36.0978 35.4021 35.5038 36.5271 34.8958 37.6171C35.3198 37.7431 36.4918 38.1741 36.7558 38.2521L37.0868 37.6271L37.3518 37.7071L37.2018 38.4121C37.5198 38.5061 38.8518 38.9881 38.9578 39.0181C38.8908 38.6541 38.8788 38.3021 38.8158 37.9371ZM37.6798 36.5911C37.6978 36.5391 37.9298 36.1451 37.9448 36.0901C38.0158 36.1401 38.1038 36.1391 38.1418 36.2081C38.1798 36.2771 38.0948 36.3661 38.0798 36.4191C38.0118 36.5451 37.9478 36.6691 37.7878 36.6231C37.7538 36.6401 37.7358 36.6081 37.6798 36.5911Z" fill="#D3D3D3"/>
<path fill-rule="evenodd" clip-rule="evenodd" d="M43.5481 38.9322C43.6971 38.7152 43.8601 38.3602 43.9051 38.1132C44.0691 37.2652 43.7001 36.7512 42.8811 36.3942C42.7231 36.3472 42.6511 36.2972 42.4921 36.2492C41.6061 36.0182 40.8751 36.1472 40.2131 36.8192C40.0451 37.0012 39.7941 37.3592 39.6961 37.5912C39.5221 38.0882 39.4491 38.5302 39.7271 38.9562C40.1541 39.6612 41.3611 40.0772 42.2641 39.8522C42.8561 39.7092 43.2131 39.3812 43.5481 38.9322Z" fill="#D3D3D3"/>
<path fill-rule="evenodd" clip-rule="evenodd" d="M32.761 36.8131C32.815 36.7431 32.878 36.6141 32.929 36.5441L32.995 36.4191L33.419 36.5451C33.97 36.7371 34.639 36.8181 35.133 36.4161C35.542 36.1031 35.945 35.5281 35.982 35.1081C36.023 34.7721 35.963 34.5801 35.78 34.3241C35.503 33.8971 34.934 33.6691 34.455 33.5291C33.886 33.3041 33.282 33.0941 32.699 32.9221C32.402 33.4421 31.298 35.5141 30.9 36.1751L32.761 36.8131ZM33.657 35.2571C33.671 35.2041 33.919 34.7581 33.97 34.6851C34.074 34.7161 34.2 34.7831 34.151 34.8541C34.136 34.9081 34.101 34.9271 34.034 35.0511C33.985 35.1231 33.97 35.1771 33.918 35.2471C33.887 35.3541 33.709 35.2711 33.657 35.2571Z" fill="#D3D3D3"/>
<path fill-rule="evenodd" clip-rule="evenodd" d="M43.4818 36.023L43.8458 35.379L43.6448 34.106L44.3188 34.364L44.4138 35.027L45.0828 34.618L45.7568 34.875L44.4678 35.621L44.1038 36.266L43.4818 36.023Z" fill="#D3D3D3"/>
<path fill-rule="evenodd" clip-rule="evenodd" d="M41.4944 35.3199C41.3884 35.2889 41.2644 35.2229 41.1904 35.1729C41.1194 35.1229 41.0834 35.0539 41.0594 34.9309C41.0024 34.7419 41.1514 34.5249 41.2824 34.2749C41.4134 34.0249 41.5124 33.7949 41.7544 33.6639C41.8564 33.6069 41.9444 33.6039 42.0324 33.6009C42.1724 33.6139 42.2774 33.6449 42.3864 33.6749L43.5384 34.0749L43.2734 34.5749L42.3874 34.2559C42.3344 34.2389 42.2814 34.2239 42.2274 34.2079C42.1404 34.2119 42.1054 34.2299 42.0724 34.2479C42.0374 34.2669 42.0034 34.2859 41.9854 34.3389C41.9024 34.4299 41.8704 34.5369 41.7864 34.6249C41.7694 34.6799 41.7874 34.7139 41.8074 34.7489C41.7934 34.8009 41.8114 34.8359 41.8634 34.8529C41.8824 34.8859 41.9354 34.9009 42.0074 34.9529L42.3274 35.0459L42.4084 34.8679L42.0184 34.7229L42.2334 34.3819L43.2094 34.6989L42.6474 35.7179L41.4944 35.3199Z" fill="#D3D3D3"/>
<path fill-rule="evenodd" clip-rule="evenodd" d="M40.0774 33.3697L39.9114 33.6387L40.4414 33.7947C40.5144 33.8467 40.5484 33.8267 40.5824 33.8077C40.6024 33.8437 40.6174 33.7887 40.6684 33.7197C40.7024 33.6997 40.7194 33.6447 40.7014 33.6117C40.6814 33.5757 40.6284 33.5617 40.5744 33.5447L40.0774 33.3697ZM40.0584 34.8097L39.9474 34.1997L39.6644 34.0867L39.3994 34.5857L38.7984 34.3787L39.6864 32.7337L41.0004 33.1807C41.1074 33.2127 41.1774 33.2627 41.2504 33.3117C41.3214 33.3627 41.3594 33.4317 41.3974 33.5007C41.4164 33.5337 41.4194 33.6217 41.3694 33.6927C41.3704 33.7827 41.3204 33.8537 41.2894 33.9597C41.1894 34.1027 41.0894 34.2477 40.9874 34.3057C40.8834 34.3597 40.7614 34.3807 40.6204 34.3687L40.7844 35.0807L40.0584 34.8097Z" fill="#D3D3D3"/>
<path fill-rule="evenodd" clip-rule="evenodd" d="M36.1009 33.4371L36.6619 32.4191C36.6759 32.3651 36.6939 32.3121 36.6939 32.3121C36.6749 32.2761 36.6559 32.2441 36.6019 32.2271L36.1049 32.0521L35.4439 33.2121L34.8399 33.0061L35.7649 31.3441L37.0259 31.7751C37.2559 31.8721 37.3469 31.9581 37.4019 32.0581C37.4779 32.1971 37.4309 32.3571 37.3299 32.5001L36.7029 33.6431L36.1009 33.4371Z" fill="#D3D3D3"/>
<path fill-rule="evenodd" clip-rule="evenodd" d="M33.6145 32.5582C33.3845 32.4622 33.1895 32.4322 33.1485 32.2762C33.0915 32.0862 33.2905 31.7992 33.4585 31.5302C33.6045 31.2262 33.7515 30.9222 33.9235 30.8292C34.0955 30.7352 34.2725 30.8172 34.5055 30.9152L35.5525 31.2832L35.3025 31.7282L34.4365 31.4452C34.2045 31.3462 34.2045 31.3462 34.1045 31.4892L35.2035 31.8722L34.9915 32.3002L33.8905 31.9182C33.7915 32.0612 33.7915 32.0612 34.0225 32.1582L34.9105 32.4802L34.6625 32.9252L33.6145 32.5582Z" fill="#D3D3D3"/>
<path fill-rule="evenodd" clip-rule="evenodd" d="M37.5374 33.9488C37.3064 33.8508 37.1134 33.8228 37.0524 33.6318C37.0124 33.4758 37.2134 33.1888 37.3614 32.8868C37.5264 32.6178 37.6544 32.2768 37.8464 32.2198C38.0174 32.1268 38.1954 32.2078 38.4294 32.3048L39.4744 32.6718L39.2284 33.1188L38.3404 32.7998C38.1274 32.7358 38.1274 32.7358 38.0274 32.8808L39.1274 33.2618L38.9144 33.6918L37.7954 33.2748C37.7124 33.4518 37.7124 33.4518 37.9794 33.5298L38.8134 33.8348L38.5864 34.3168L37.5374 33.9488Z" fill="#D3D3D3"/>
<path fill-rule="evenodd" clip-rule="evenodd" d="M44.8987 36.9029L41.6417 38.0499L40.8267 37.2899C40.9507 37.8449 41.1467 38.9439 41.2027 39.0469C41.3247 39.0249 44.8987 36.9029 44.8987 36.9029Z" fill="#272727"/>
<path fill-rule="evenodd" clip-rule="evenodd" d="M39.3167 18.025C39.0547 18.025 38.8037 18.161 38.6597 18.405L22.1077 48.627C22.0167 48.792 21.9967 48.988 22.0497 49.167C22.0877 49.292 22.1767 49.464 22.3937 49.578L34.6047 56.279C34.7797 56.381 34.9727 56.405 35.1597 56.349C35.3507 56.294 35.5197 56.163 35.6227 55.989L52.1607 25.822C52.3537 25.452 52.2327 25.02 51.8677 24.804L39.6807 18.116C39.5627 18.054 39.4387 18.025 39.3167 18.025ZM34.9557 57.4C34.6557 57.4 34.3627 57.321 34.0997 57.166L21.9107 50.477C21.5047 50.264 21.2047 49.901 21.0717 49.46C20.9397 49.02 20.9917 48.538 21.2127 48.135L37.7727 17.9C38.2757 17.049 39.2957 16.759 40.1607 17.214L40.1687 17.218L52.3737 23.918C53.2217 24.418 53.5107 25.44 53.0597 26.303L36.5087 56.494C36.2637 56.909 35.8887 57.201 35.4437 57.33C35.2817 57.377 35.1177 57.4 34.9557 57.4Z" fill="#D3D3D3"/>
</svg>
