<svg width="16" height="18" viewBox="0 0 16 18" fill="none" xmlns="http://www.w3.org/2000/svg">
<mask id="mask0" mask-type="alpha" maskUnits="userSpaceOnUse" x="0" y="0" width="16" height="19">
<path fill-rule="evenodd" clip-rule="evenodd" d="M0 6.10352e-05H15.989V18.0003H0V6.10352e-05Z" fill="white"/>
</mask>
<g mask="url(#mask0)">
<path fill-rule="evenodd" clip-rule="evenodd" d="M0.0468998 9.26719L4.0399 17.8772C4.0399 17.8772 4.1849 18.1702 4.3869 17.8522C4.6259 17.4772 15.9479 0.242193 15.9479 0.242193C15.9479 0.242193 16.0189 0.0701926 15.9759 0.0231926C15.9419 -0.0138074 15.8499 -0.0148074 15.7399 0.0831926C15.3239 0.458193 4.1099 12.5362 4.1099 12.5362C4.1099 12.5362 3.9229 12.6512 3.6989 12.5662C3.4419 12.4682 0.2499 9.05719 0.2499 9.05719C0.2499 9.05719 -0.1301 8.93219 0.0468998 9.26719Z" fill="#FF0600"/>
</g>
</svg>
