<svg width="105" height="55" viewBox="0 0 105 55" fill="none" xmlns="http://www.w3.org/2000/svg">
<path fill-rule="evenodd" clip-rule="evenodd" d="M51.0734 30.8548C51.0374 30.3728 51.0604 26.6548 51.0594 26.2998C51.7354 26.1878 52.4694 25.9518 52.8654 26.2828C53.2954 26.6408 53.2044 27.5188 53.2064 28.1488C53.2094 29.1438 53.3904 30.4018 52.1564 30.6648C51.7914 30.7428 51.4024 30.8008 51.0734 30.8548ZM64.7614 36.0838C66.1254 34.1988 66.9144 33.1128 67.6584 30.9118C68.4874 28.4588 69.1834 24.6968 67.9444 21.2738C65.9194 15.6808 59.3794 14.3138 53.5794 15.2748C51.5284 15.6148 35.7674 18.2208 34.8454 18.3738C34.8774 28.6588 34.9114 39.0058 34.9424 49.2918C38.4724 48.7078 48.7924 46.9998 51.1084 46.6188L51.0894 40.7758L53.2424 40.4188C53.2424 40.4188 55.0374 45.9658 55.0374 45.9678C57.5564 45.5488 69.0314 43.6518 69.9944 43.4948C68.2574 41.0128 66.5054 38.5568 64.7614 36.0838Z" fill="white"/>
<path fill-rule="evenodd" clip-rule="evenodd" d="M103.145 24.485C103.413 22.337 103.158 18.904 102.5 16.976C101.883 15.17 101.089 13.695 100.114 12.513C94.8487 21.266 87.0687 34.183 86.6217 34.808C85.7487 33.997 79.7727 26.853 76.8427 23.302L85.7127 25.738L98.8497 11.231C96.2717 9.04802 92.7257 8.34502 88.1617 8.67902C86.8017 8.78002 86.0477 8.90402 84.6887 9.25502C77.3437 11.145 72.6537 14.852 70.4167 22.282C69.7717 24.425 69.5397 27.939 69.8207 29.997C70.4217 34.394 71.7097 37.844 75.5157 39.997C81.3807 43.313 91.6797 41.609 97.5177 36.357C101.306 32.95 102.572 29.078 103.145 24.485Z" fill="white"/>
<path fill-rule="evenodd" clip-rule="evenodd" d="M16.3805 37.189C16.3795 36.749 16.3655 32.407 16.3635 31.796C17.3025 31.486 18.4705 31.455 18.4735 32.249C18.4745 32.871 18.4755 32.946 18.4795 34.198C18.4815 34.949 18.4825 35.354 18.4845 36.012C18.4875 37.029 17.0245 37.083 16.3805 37.189ZM16.2975 52.171C16.2955 51.298 16.2805 50.418 16.2895 49.544C16.2905 49.517 16.2855 48.165 16.2855 48.165L19.9025 47.566C24.5885 46.738 29.7235 44.712 31.9525 39.76C33.6915 35.897 34.1065 30.073 32.7485 26.647C31.8035 24.262 30.5485 22.996 28.1585 21.796C24.5975 20.009 19.4255 20.652 15.3925 21.319C10.3645 22.151 5.14146 22.994 0.158464 23.885C0.173464 28.906 0.193464 48.552 0.255464 54.845L16.2975 52.171Z" fill="white"/>
<mask id="mask0" mask-type="alpha" maskUnits="userSpaceOnUse" x="49" y="3" width="11" height="11">
<path fill-rule="evenodd" clip-rule="evenodd" d="M49.0132 3H59.6092V13.1958H49.0132V3Z" fill="white"/>
</mask>
<g mask="url(#mask0)">
<path fill-rule="evenodd" clip-rule="evenodd" d="M52.7882 13.196L52.7772 9.651L49.0132 4.753L52.4322 4.187L54.3202 6.776L54.3712 6.768L56.2922 3.549L59.6092 3L55.8922 9.135L55.9042 12.681L52.7882 13.196Z" fill="white"/>
</g>
<path fill-rule="evenodd" clip-rule="evenodd" d="M42.7086 14.8628C42.1036 14.9638 41.5816 14.9648 41.1436 14.8668C40.7066 14.7688 40.3436 14.5618 40.0566 14.2478C39.3346 13.4548 39.4126 12.3178 39.4086 10.8818C39.4036 9.46682 39.3326 8.30282 40.0346 7.29182C40.3196 6.88282 40.6806 6.55582 41.1176 6.31382C41.5536 6.07082 42.0746 5.89982 42.6806 5.79982L48.4836 4.84082L48.4916 7.51182L43.9886 8.25682C43.6606 8.31082 43.3916 8.39382 43.1816 8.50482C42.9716 8.61482 42.8076 8.75882 42.6896 8.93482C42.5726 9.11082 42.4456 9.32182 42.4466 9.55982C42.4476 10.0578 42.4496 10.7128 42.4516 11.1978C42.4516 11.4358 42.5806 11.6038 42.6986 11.7418C42.8176 11.8788 42.9816 11.9668 43.1916 12.0088C43.4026 12.0498 43.6716 12.0438 43.9996 11.9898L45.6266 11.7198L45.6246 10.7808L43.6436 11.1078L43.6376 9.09382L48.5316 8.28482L48.5496 13.8968L42.7086 14.8628Z" fill="white"/>
<path fill-rule="evenodd" clip-rule="evenodd" d="M35.4806 16.0583L33.5666 13.6203L32.2176 13.8443L32.2256 16.5973L29.1606 17.1043L29.1316 8.04032L35.6166 6.96832C36.2126 6.87032 36.7096 6.85032 37.1056 6.91032C37.5016 6.97032 37.8146 7.11132 38.0466 7.33132C38.2786 7.55332 38.4416 7.85532 38.5356 8.23832C38.6296 8.62132 38.6776 9.08532 38.6786 9.63232C38.6816 10.4643 38.5366 11.1313 38.2436 11.6323C37.9506 12.1323 37.4806 12.5393 36.8336 12.8523L39.1516 15.4523L35.4806 16.0583ZM32.2056 9.88332L32.2096 11.3333L34.8076 10.9043C35.0856 10.8583 35.2826 10.7783 35.4006 10.6643C35.5186 10.5513 35.5766 10.3423 35.5756 10.0373C35.5746 9.75132 35.5146 9.57132 35.3966 9.49632C35.2786 9.42232 35.0816 9.40832 34.8036 9.45432L32.2056 9.88332Z" fill="white"/>
<path fill-rule="evenodd" clip-rule="evenodd" d="M15.65 19.3386L15.632 13.7396C15.631 13.4526 15.58 13.2626 15.479 13.1666C15.378 13.0716 15.192 13.0466 14.923 13.0916L12.4 13.5086L12.421 19.8726L9.31696 20.3866L9.28896 11.3226L15.76 10.2526C16.795 10.0816 17.544 10.1926 18.008 10.5856C18.472 10.9796 18.705 11.6146 18.708 12.4916L18.728 18.8296L15.65 19.3386Z" fill="white"/>
<path fill-rule="evenodd" clip-rule="evenodd" d="M3.14856 21.4056C1.94656 21.6046 1.05256 21.8666 0.465565 21.2566C-0.120435 20.6446 0.0285647 18.9976 0.0235647 17.3956C0.0185647 15.7936 -0.140435 14.1946 0.440565 13.3856C1.02356 12.5776 1.91756 12.5416 3.12056 12.3426L8.35557 11.4766L8.36356 14.0016L4.02356 14.7186C2.83556 14.9156 2.78956 14.9626 2.79156 15.7426L8.31557 14.8286L8.32257 17.1106L2.77356 18.0286C2.77556 18.9006 2.69256 18.9556 4.03656 18.7336L8.37556 18.0156L8.38356 20.5406L3.14856 21.4056Z" fill="white"/>
<path fill-rule="evenodd" clip-rule="evenodd" d="M22.8414 18.1492C21.6384 18.3482 20.7454 18.6092 20.1584 18.0002C19.5714 17.3882 19.7214 15.7412 19.7164 14.1382C19.7114 12.5372 19.5514 10.9372 20.1334 10.1292C20.7164 9.32121 21.6104 9.28521 22.8124 9.08621L28.0484 8.22021L28.0554 10.7442L23.7164 11.4622C22.5284 11.6592 22.4814 11.7062 22.4844 12.4852L28.0084 11.5722L28.0154 13.8542L22.4664 14.7722C22.4684 15.6442 22.3854 15.6992 23.7294 15.4762L28.0684 14.7582L28.0764 17.2832L22.8414 18.1492Z" fill="white"/>
<path fill-rule="evenodd" clip-rule="evenodd" d="M104.899 3.896L85.7126 25.083L76.8426 22.646C79.7736 26.199 85.7496 33.342 86.6216 34.153C87.2996 33.203 104.899 3.896 104.899 3.896Z" fill="#E31E24"/>
</svg>
